<svg id="Component_1_1" data-name="Component 1 – 1" xmlns="http://www.w3.org/2000/svg" width="1440" height="310" viewBox="0 0 1440 310">
  <g id="Group_1" data-name="Group 1" transform="translate(0 -145)">
    <path id="Path_1" data-name="Path 1" d="M0,224l80-10.7c80-10.3,240-32.3,400-16C640,213,800,267,960,266.7c160,.3,320-53.7,400-80l80-26.7V320H0Z" transform="translate(0 -15)" fill="#529ef4"/>
    <path id="Path_2" data-name="Path 2" d="M0,224l80-10.7c80-10.3,240-32.3,400-16C640,213,800,267,960,266.7c160,.3,320-53.7,400-80l80-26.7V320H0Z" fill="#2a64cd"/>
  </g>
  <g id="Group_2" data-name="Group 2" transform="translate(0 45)">
    <path id="Path_1-2" data-name="Path 1" d="M0,224l80-10.7c80-10.3,240-32.3,400-16C640,213,800,267,960,266.7c160,.3,320-53.7,400-80l80-26.7V320H0Z" transform="translate(1440 425) rotate(180)" fill="#529ef4"/>
    <path id="Path_2-2" data-name="Path 2" d="M0,224l80-10.7c80-10.3,240-32.3,400-16C640,213,800,267,960,266.7c160,.3,320-53.7,400-80l80-26.7V320H0Z" transform="translate(1440 410) rotate(180)" fill="#2a64cd"/>
  </g>
</svg>
