<svg id="Component_3_1" data-name="Component 3 – 1" xmlns="http://www.w3.org/2000/svg" width="1440" height="208" viewBox="0 0 1440 208">
  <rect id="Rectangle_1" data-name="Rectangle 1" width="1440" height="128" transform="translate(0 80)" fill="#f3f3f3"/>
  <g id="Component_1_1" data-name="Component 1 – 1">
    <g id="Group_1" data-name="Group 1">
      <path id="Path_1" data-name="Path 1" d="M0,195.6l80-5.952c80-5.729,240-17.967,400-8.9,160,8.733,320,38.771,480,38.6,160,.167,320-29.871,400-44.5L1440,160v89H0Z" transform="translate(0 -160)" fill="#529ef4"/>
      <path id="Path_2" data-name="Path 2" d="M0,195.6l80-5.952c80-5.729,240-17.967,400-8.9,160,8.733,320,38.771,480,38.6,160,.167,320-29.871,400-44.5L1440,160v89H0Z" transform="translate(0 -145)" fill="#2a64cd"/>
    </g>
    <g id="Group_2" data-name="Group 2" transform="translate(0 104)">
      <path id="Path_1-2" data-name="Path 1" d="M0,35.6l80-5.952c80-5.729,240-17.967,400-8.9,160,8.733,320,38.771,480,38.6,160,.167,320-29.871,400-44.5L1440,0V89H0Z" transform="translate(1440 104) rotate(180)" fill="#529ef4"/>
      <path id="Path_2-2" data-name="Path 2" d="M0,35.6l80-5.952c80-5.729,240-17.967,400-8.9,160,8.733,320,38.771,480,38.6,160,.167,320-29.871,400-44.5L1440,0V89H0Z" transform="translate(1440 89) rotate(180)" fill="#2a64cd"/>
    </g>
  </g>
</svg>
