<svg id="Component_2_1" data-name="Component 2 – 1" xmlns="http://www.w3.org/2000/svg" width="1440" height="299" viewBox="0 0 1440 299">
  <g id="Rectangle_1" data-name="Rectangle 1" transform="translate(0 171)" fill="#f3f3f3" stroke="#707070" stroke-width="1">
    <rect width="1440" height="128" stroke="none"/>
    <rect x="0.5" y="0.5" width="1439" height="127" fill="none"/>
  </g>
  <g id="Component_1_1" data-name="Component 1 – 1">
    <g id="Group_1" data-name="Group 1">
      <path id="Path_1" data-name="Path 1" d="M0,224l80-10.7c80-10.3,240-32.3,400-16C640,213,800,267,960,266.7c160,.3,320-53.7,400-80l80-26.7V320H0Z" transform="translate(0 -160)" fill="#529ef4"/>
      <path id="Path_2" data-name="Path 2" d="M0,224l80-10.7c80-10.3,240-32.3,400-16C640,213,800,267,960,266.7c160,.3,320-53.7,400-80l80-26.7V320H0Z" transform="translate(0 -145)" fill="#2a64cd"/>
    </g>
    <g id="Group_2" data-name="Group 2" transform="translate(0 124)">
      <path id="Path_1-2" data-name="Path 1" d="M0,64,80,53.3C160,43,320,21,480,37.3,640,53,800,107,960,106.7c160,.3,320-53.7,400-80L1440,0V160H0Z" transform="translate(1440 175) rotate(180)" fill="#529ef4"/>
      <path id="Path_2-2" data-name="Path 2" d="M0,64,80,53.3C160,43,320,21,480,37.3,640,53,800,107,960,106.7c160,.3,320-53.7,400-80L1440,0V160H0Z" transform="translate(1440 160) rotate(180)" fill="#2a64cd"/>
    </g>
  </g>
</svg>
